<?xml version="1.0" encoding="utf-8"?><!-- Uploaded to: SVG Repo, www.svgrepo.com, Generator: SVG Repo Mixer Tools -->
<svg fill="#000000" width="800px" height="800px" viewBox="0 0 24 24" id="water-can" data-name="Flat Line" xmlns="http://www.w3.org/2000/svg" class="icon flat-line"><path id="secondary" d="M16.9,19H9.1a1,1,0,0,1-1-1.09l.82-9a1,1,0,0,1,1-.91h6.18a1,1,0,0,1,1,.91l.82,9A1,1,0,0,1,16.9,19Z" style="fill: rgb(44, 169, 188); stroke-width: 2;"></path><polyline id="primary" points="8.04 16.63 3 11.59 4.83 9.76 8.48 11.76" style="fill: none; stroke: rgb(0, 0, 0); stroke-linecap: round; stroke-linejoin: round; stroke-width: 2;"></polyline><path id="primary-2" data-name="primary" d="M13.18,7.81a4,4,0,1,1,4.47,5.13" style="fill: none; stroke: rgb(0, 0, 0); stroke-linecap: round; stroke-linejoin: round; stroke-width: 2;"></path><path id="primary-3" data-name="primary" d="M16.9,19H9.1a1,1,0,0,1-1-1.09l.82-9a1,1,0,0,1,1-.91h6.18a1,1,0,0,1,1,.91l.82,9A1,1,0,0,1,16.9,19Z" style="fill: none; stroke: rgb(0, 0, 0); stroke-linecap: round; stroke-linejoin: round; stroke-width: 2;"></path></svg>